<svg width="1200" height="800" viewBox="0 0 1200 800" fill="none" xmlns="http://www.w3.org/2000/svg">
  <defs>
    <linearGradient id="grad1" x1="0%" y1="0%" x2="100%" y2="100%">
      <stop offset="0%" style="stop-color:#059669;stop-opacity:1" />
      <stop offset="100%" style="stop-color:#10B981;stop-opacity:1" />
    </linearGradient>
  </defs>
  <rect width="1200" height="800" fill="#F0FDF4"/>
  
  <!-- Content Area -->
  <rect x="80" y="60" width="1040" height="680" rx="40" fill="white" shadow="0 20px 50px rgba(0,0,0,0.05)"/>
  
  <!-- Header -->
  <rect x="80" y="60" width="1040" height="120" rx="40 40 0 0" fill="url(#grad1)"/>
  <circle cx="140" cy="120" r="30" fill="white" fill-opacity="0.2"/>
  <text x="190" y="130" fill="white" font-family="Inter, sans-serif" font-size="28" font-weight="900">FichePro Bénin</text>
  
  <rect x="880" y="100" width="180" height="40" rx="20" fill="white"/>
  <text x="970" y="125" text-anchor="middle" fill="#059669" font-family="Inter, sans-serif" font-size="14" font-weight="700">Mon Compte</text>
  
  <!-- Grid -->
  <rect x="130" y="230" width="300" height="180" rx="24" fill="#F9FAFB" stroke="#DCFCE7"/>
  <circle cx="170" cy="275" r="20" fill="#10B981"/>
  <text x="130" y="440" fill="#111827" font-family="Inter, sans-serif" font-size="18" font-weight="800">Générateur Magique</text>
  
  <rect x="450" y="230" width="300" height="180" rx="24" fill="#F9FAFB" stroke="#FEF3C7"/>
  <circle cx="490" cy="275" r="20" fill="#F59E0B"/>
  <text x="450" y="440" fill="#111827" font-family="Inter, sans-serif" font-size="18" font-weight="800">Mes Archives</text>
  
  <rect x="770" y="230" width="300" height="180" rx="24" fill="#F9FAFB" stroke="#DBEAFE"/>
  <circle cx="810" cy="275" r="20" fill="#3B82F6"/>
  <text x="770" y="440" fill="#111827" font-family="Inter, sans-serif" font-size="18" font-weight="800">Support Pédagogique</text>
  
  <!-- Bottom Bar -->
  <rect x="130" y="520" width="940" height="180" rx="32" fill="#ECFDF5"/>
  <text x="170" y="570" fill="#065F46" font-family="Inter, sans-serif" font-size="24" font-weight="900">Prêt pour votre cours de demain ?</text>
  <rect x="170" y="600" width="220" height="50" rx="12" fill="#059669"/>
  <text x="280" y="632" text-anchor="middle" fill="white" font-family="Inter, sans-serif" font-size="16" font-weight="700">Lancer l'IA</text>
</svg>